# Rhino

g object_1
v -0.5000000732421879 0.07499999237060556 0.4999999975585938
v -0.5000000732421879 0.07499999237060556 0.4999999975585938
v -0.5000000732421879 0.07499999237060556 0.4999999975585938
v -0.4500000732421881 0.07499999237060556 0.4499999975585938
v -0.4500000732421881 0.07499999237060556 0.4499999975585938
v -0.4500000732421881 0.07499999237060556 0.4499999975585938
v -0.5000000732421879 0.07499999237060556 -0.5000000024414062
v -0.5000000732421879 0.07499999237060556 -0.5000000024414062
v -0.5000000732421879 0.07499999237060556 -0.5000000024414062
v 0.4999999267578121 0.07499999237060556 0.4999999975585938
v 0.4999999267578121 0.07499999237060556 0.4999999975585938
v 0.4999999267578121 0.07499999237060556 0.4999999975585938
v -0.5000000732421879 -0.07500000762939446 0.4999999975585938
v -0.5000000732421879 -0.07500000762939446 0.4999999975585938
v -0.5000000732421879 -0.07500000762939446 0.4999999975585938
v 0.4999999267578121 -0.07500000762939446 0.4999999975585938
v 0.4999999267578121 -0.07500000762939446 0.4999999975585938
v 0.4999999267578121 -0.07500000762939446 0.4999999975585938
v -0.4500000732421881 -0.07500000762939464 0.4499999975585938
v -0.4500000732421881 -0.07500000762939464 0.4499999975585938
v -0.4500000732421881 -0.07500000762939464 0.4499999975585938
v -0.4500000732421881 -0.07500000762939464 -0.4500000024414059
v -0.4500000732421881 -0.07500000762939464 -0.4500000024414059
v -0.4500000732421881 -0.07500000762939464 -0.4500000024414059
v -0.5000000732421879 -0.07500000762939446 -0.5000000024414062
v -0.5000000732421879 -0.07500000762939446 -0.5000000024414062
v -0.5000000732421879 -0.07500000762939446 -0.5000000024414062
v 0.4999999267578121 -0.07500000762939446 -0.5000000024414062
v 0.4999999267578121 -0.07500000762939446 -0.5000000024414062
v 0.4999999267578121 -0.07500000762939446 -0.5000000024414062
v 0.4999999267578121 0.07499999237060556 -0.5000000024414062
v 0.4999999267578121 0.07499999237060556 -0.5000000024414062
v 0.4999999267578121 0.07499999237060556 -0.5000000024414062
v -0.4500000732421881 0.07499999237060556 -0.4500000024414059
v -0.4500000732421881 0.07499999237060556 -0.4500000024414059
v -0.4500000732421881 0.07499999237060556 -0.4500000024414059
v 0.4499999267578123 -0.07500000762939464 -0.4500000024414059
v 0.4499999267578123 -0.07500000762939464 -0.4500000024414059
v 0.4499999267578123 -0.07500000762939464 -0.4500000024414059
v 0.4499999267578123 0.07499999237060556 -0.4500000024414059
v 0.4499999267578123 0.07499999237060556 -0.4500000024414059
v 0.4499999267578123 0.07499999237060556 -0.4500000024414059
v 0.4499999267578123 -0.07500000762939464 0.4499999975585938
v 0.4499999267578123 -0.07500000762939464 0.4499999975585938
v 0.4499999267578123 -0.07500000762939464 0.4499999975585938
v 0.4499999267578123 0.07499999237060556 0.4499999975585938
v 0.4499999267578123 0.07499999237060556 0.4499999975585938
v 0.4499999267578123 0.07499999237060556 0.4499999975585938
vt 0 0
vt 0 5.905509948730469
vt 0 5.905509948730469
vt 1.968500018119812 1.968500018119812
vt -1.968500018119812 5.905509948730469
vt 1.968500018119812 5.905509948730469
vt 0 39.37009811401367
vt 0 5.905509948730469
vt -39.37009811401367 5.905509948730469
vt 39.37009811401367 0
vt 39.37009811401367 5.905509948730469
vt 0 5.905509948730469
vt 0 0
vt 0 0
vt 0 0
vt 39.37009811401367 0
vt -39.37009811401367 0
vt 0 0
vt -1.968500018119812 1.968500018119812
vt -1.968500018119812 -7.105429898699844e-15
vt 1.968500018119812 -7.105429898699844e-15
vt 1.968500018119812 -7.105429898699844e-15
vt -1.968500018119812 37.4015998840332
vt 37.4015998840332 -7.105429898699844e-15
vt 0 39.37009811401367
vt 0 0
vt -39.37009811401367 0
vt -39.37009811401367 39.37009811401367
vt -39.37009811401367 0
vt 39.37009811401367 0
vt 39.37009811401367 39.37009811401367
vt -39.37009811401367 5.905509948730469
vt 39.37009811401367 5.905509948730469
vt 1.968500018119812 37.4015998840332
vt 1.968500018119812 5.905509948730469
vt 37.4015998840332 5.905509948730469
vt 37.4015998840332 -7.105429898699844e-15
vt -37.4015998840332 37.4015998840332
vt -37.4015998840332 -7.105429898699844e-15
vt 37.4015998840332 37.4015998840332
vt 37.4015998840332 5.905509948730469
vt -37.4015998840332 5.905509948730469
vt -37.4015998840332 1.968500018119812
vt -37.4015998840332 -7.105429898699844e-15
vt -1.968500018119812 -7.105429898699844e-15
vt 37.4015998840332 1.968500018119812
vt -37.4015998840332 5.905509948730469
vt -1.968500018119812 5.905509948730469
vn 0 1 0
vn 0 0 1
vn -1 0 0
vn 0 1 0
vn 0 0 -1
vn 1 0 0
vn 0 1 0
vn 0 0 -1
vn -1 0 0
vn 0 1 0
vn 0 0 1
vn 1 0 0
vn 0 0 1
vn 0 -1 0
vn -1 0 0
vn 0 0 1
vn 0 -1 0
vn 1 0 0
vn 0 -1 0
vn 0 0 -1
vn 1 0 0
vn 0 0 1
vn 0 -1 0
vn 1 0 0
vn 0 -1 0
vn 0 0 -1
vn -1 0 0
vn 0 -1 0
vn 0 0 -1
vn 1 0 0
vn 0 1 0
vn 0 0 -1
vn 1 0 0
vn 0 1 0
vn 0 0 1
vn 1 0 0
vn 0 0 1
vn 0 -1 0
vn -1 0 0
vn 0 1 0
vn 0 0 1
vn -1 0 0
vn 0 -1 0
vn 0 0 -1
vn -1 0 0
vn 0 1 0
vn 0 0 -1
vn -1 0 0
f 1/1/1 4/4/4 7/7/7
f 4/4/4 1/1/1 10/10/10
f 13/13/13 16/16/16 11/11/11 2/2/2
f 14/14/14 19/19/19 17/17/17
f 19/19/19 14/14/14 23/23/23
f 25/25/25 23/23/23 14/14/14
f 23/23/23 25/25/25 28/28/28
f 29/29/29 26/26/26 8/8/8 32/32/32
f 27/27/27 15/15/15 3/3/3 9/9/9
f 7/7/7 34/34/34 31/31/31
f 34/34/34 7/7/7 4/4/4
f 21/21/21 24/24/24 36/36/36 6/6/6
f 22/22/22 37/37/37 41/41/41 35/35/35
f 23/23/23 28/28/28 38/38/38
f 38/38/38 28/28/28 43/43/43
f 17/17/17 43/43/43 28/28/28
f 17/17/17 19/19/19 43/43/43
f 44/44/44 20/20/20 5/5/5 47/47/47
f 4/4/4 10/10/10 46/46/46
f 46/46/46 10/10/10 40/40/40
f 31/31/31 40/40/40 10/10/10
f 31/31/31 34/34/34 40/40/40
f 18/18/18 30/30/30 33/33/33 12/12/12
f 39/39/39 45/45/45 48/48/48 42/42/42
