# Rhino

g object_1
v -12.5 0 12.5
v -12.5 1 12.5
v 12.5 0 12.5
v 12.5 1 12.5
v 12.5 0 12.5
v 12.5 1 12.5
v 12.5 0 -12.5
v 12.5 1 -12.5
v 12.5 0 -12.5
v 12.5 1 -12.5
v -12.5 0 -12.5
v -12.5 1 -12.5
v -12.5 0 -12.5
v -12.5 1 -12.5
v -12.5 0 12.5
v -12.5 1 12.5
v -12.5 0 12.5
v -12.5 0 -12.5
v 12.5 0 12.5
v 12.5 0 -12.5
v -12.5 1 12.5
v -12.5 1 -12.5
v 12.5 1 12.5
v 12.5 1 -12.5
v 11.5 1 11.5
v -11.5 1 11.5
v 11.5 1 -11.5
v -11.5 1 -11.5
vt 0.03853515535593033 0
vt 0.01999999955296516 0
vt 0.03853515535593033 0.5
vt 0.01999999955296516 0.5
vt 0.01853515580296516 0
vt 0 0
vt 0.01853515580296516 0.5
vt 0 0.5
vt 0.07853515446186066 0
vt 0.05999999865889549 0
vt 0.07853515446186066 0.5
vt 0.05999999865889549 0.5
vt 0.05853515490889549 0
vt 0.03999999910593033 0
vt 0.05853515490889549 0.5
vt 0.03999999910593033 0.5
vt 0.5785351395606995 0.5
vt 0.07999999821186066 0.5
vt 0.5785351395606995 0.99853515625
vt 0.07999999821186066 0.99853515625
vt 0.5785351395606995 0
vt 0.07999999821186066 0
vt 0.5785351395606995 0.49853515625
vt 0.07999999821186066 0.49853515625
vt 0.55859375 0.4785937368869782
vt 0.55859375 0.01994140632450581
vt 0.09994141757488251 0.4785937368869782
vt 0.09994141757488251 0.01994140632450581
vn 0 0 1
vn 0 0 1
vn 0 0 1
vn 0 0 1
vn 1 0 0
vn 1 0 0
vn 1 0 0
vn 1 0 0
vn 0 0 -1
vn 0 0 -1
vn 0 0 -1
vn 0 0 -1
vn -1 0 0
vn -1 0 0
vn -1 0 0
vn -1 0 0
vn 0 -1 0
vn 0 -1 0
vn 0 -1 0
vn 0 -1 0
vn 0 1 0
vn 0 1 0
vn 0 1 0
vn 0 1 0
vn 0 1 0
vn 0 1 0
vn 0 1 0
vn 0 1 0
f 2/2/2 1/1/1 3/3/3 4/4/4
f 6/6/6 5/5/5 7/7/7 8/8/8
f 10/10/10 9/9/9 11/11/11 12/12/12
f 14/14/14 13/13/13 15/15/15 16/16/16
f 18/18/18 20/20/20 19/19/19 17/17/17
f 26/26/26 28/28/28 22/22/22 21/21/21
f 21/21/21 23/23/23 25/25/25 26/26/26
f 28/28/28 27/27/27 24/24/24 22/22/22
f 23/23/23 24/24/24 27/27/27 25/25/25
g object_2
v 0.5 1 11.5
v 0.5 1 -11.5
v 11.5 1 11.5
v 11.5 1 -11.5
vt 0 0
vt 0 1
vt 1 0
vt 1 1
vn 0 1 0
vn 0 1 0
vn 0 1 0
vn 0 1 0
f 30/30/30 29/29/29 31/31/31 32/32/32
g object_3
v -11.5 1 11.5
v -11.5 1 -11.5
v -0.5 1 11.5
v -0.5 1 -11.5
vt 0 0
vt 0 1
vt 1 0
vt 1 1
vn 0 1 0
vn 0 1 0
vn 0 1 0
vn 0 1 0
f 34/34/34 33/33/33 35/35/35 36/36/36
g object_4
v -12.49999904632568 10 11.5
v -12.49999904632568 10 -11.5
v -11.49999904632568 10 11.5
v -11.49999904632568 10 -11.5
v -12.49999904632568 1 11.5
v -12.49999904632568 1 -11.5
v -11.49999904632568 1 11.5
v -11.49999904632568 1 -11.5
v -12.49999904632568 1 11.5
v -12.49999904632568 10 11.5
v -11.49999904632568 1 11.5
v -11.49999904632568 10 11.5
v -11.49999904632568 1 11.5
v -11.49999904632568 10 11.5
v -11.49999904632568 1 -11.5
v -11.49999904632568 10 -11.5
v -11.49999904632568 1 -11.5
v -11.49999904632568 10 -11.5
v -12.49999904632568 1 -11.5
v -12.49999904632568 10 -11.5
v -12.49999904632568 1 -11.5
v -12.49999904632568 10 -11.5
v -12.49999904632568 1 11.5
v -12.49999904632568 10 11.5
vt 0.1304347813129425 0
vt 0.1304347813129425 0.99853515625
vt 0.1724482029676437 0
vt 0.1724482029676437 0.99853515625
vt 0.08695652335882187 0
vt 0.08695652335882187 0.99853515625
vt 0.1289699375629425 0
vt 0.1289699375629425 0.99853515625
vt 0.04347826167941093 0
vt 0.04347826167941093 0.3913043439388275
vt 0.08549167960882187 0
vt 0.08549167960882187 0.3913043439388275
vt 0.95505690574646 0
vt 0.5652173757553101 0
vt 0.95505690574646 0.99853515625
vt 0.5652173757553101 0.99853515625
vt 0 0
vt 0 0.3913043439388275
vt 0.04201341792941093 0
vt 0.04201341792941093 0.3913043439388275
vt 0.5637525320053101 0
vt 0.1739130467176437 0
vt 0.5637525320053101 0.99853515625
vt 0.1739130467176437 0.99853515625
vn 0 1 0
vn 0 1 0
vn 0 1 0
vn 0 1 0
vn 0 -1 0
vn 0 -1 0
vn 0 -1 0
vn 0 -1 0
vn 0 0 1
vn 0 0 1
vn 0 0 1
vn 0 0 1
vn 1 0 0
vn 1 0 0
vn 1 0 0
vn 1 0 0
vn 0 0 -1
vn 0 0 -1
vn 0 0 -1
vn 0 0 -1
vn -1 0 0
vn -1 0 0
vn -1 0 0
vn -1 0 0
f 38/38/38 37/37/37 39/39/39 40/40/40
f 42/42/42 44/44/44 43/43/43 41/41/41
f 46/46/46 45/45/45 47/47/47 48/48/48
f 50/50/50 49/49/49 51/51/51 52/52/52
f 54/54/54 53/53/53 55/55/55 56/56/56
f 58/58/58 57/57/57 59/59/59 60/60/60
g object_5
v 11.50000095367432 10 11.5
v 11.50000095367432 10 -11.5
v 12.50000095367432 10 11.5
v 12.50000095367432 10 -11.5
v 11.50000095367432 1 11.5
v 11.50000095367432 1 -11.5
v 12.50000095367432 1 11.5
v 12.50000095367432 1 -11.5
v 11.50000095367432 1 11.5
v 11.50000095367432 10 11.5
v 12.50000095367432 1 11.5
v 12.50000095367432 10 11.5
v 12.50000095367432 1 11.5
v 12.50000095367432 10 11.5
v 12.50000095367432 1 -11.5
v 12.50000095367432 10 -11.5
v 12.50000095367432 1 -11.5
v 12.50000095367432 10 -11.5
v 11.50000095367432 1 -11.5
v 11.50000095367432 10 -11.5
v 11.50000095367432 1 -11.5
v 11.50000095367432 10 -11.5
v 11.50000095367432 1 11.5
v 11.50000095367432 10 11.5
vt 0.1304347813129425 0
vt 0.1304347813129425 0.99853515625
vt 0.1724482029676437 0
vt 0.1724482029676437 0.99853515625
vt 0.08695652335882187 0
vt 0.08695652335882187 0.99853515625
vt 0.1289699375629425 0
vt 0.1289699375629425 0.99853515625
vt 0.04347826167941093 0
vt 0.04347826167941093 0.3913043439388275
vt 0.08549167960882187 0
vt 0.08549167960882187 0.3913043439388275
vt 0.95505690574646 0
vt 0.5652173757553101 0
vt 0.95505690574646 0.99853515625
vt 0.5652173757553101 0.99853515625
vt 0 0
vt 0 0.3913043439388275
vt 0.04201341792941093 0
vt 0.04201341792941093 0.3913043439388275
vt 0.5637525320053101 0
vt 0.1739130467176437 0
vt 0.5637525320053101 0.99853515625
vt 0.1739130467176437 0.99853515625
vn 0 1 0
vn 0 1 0
vn 0 1 0
vn 0 1 0
vn 0 -1 0
vn 0 -1 0
vn 0 -1 0
vn 0 -1 0
vn 0 0 1
vn 0 0 1
vn 0 0 1
vn 0 0 1
vn 1 0 0
vn 1 0 0
vn 1 0 0
vn 1 0 0
vn 0 0 -1
vn 0 0 -1
vn 0 0 -1
vn 0 0 -1
vn -1 0 0
vn -1 0 0
vn -1 0 0
vn -1 0 0
f 62/62/62 61/61/61 63/63/63 64/64/64
f 66/66/66 68/68/68 67/67/67 65/65/65
f 70/70/70 69/69/69 71/71/71 72/72/72
f 74/74/74 73/73/73 75/75/75 76/76/76
f 78/78/78 77/77/77 79/79/79 80/80/80
f 82/82/82 81/81/81 83/83/83 84/84/84
g object_6
v -12.49999904632568 1 -12.5
v -12.49999904632568 1 -11.5
v -11.49999904632568 1 -12.5
v -11.49999904632568 1 -11.5
v -12.49999904632568 10 -12.5
v -12.49999904632568 10 -11.5
v -11.49999904632568 10 -12.5
v -11.49999904632568 10 -11.5
v -11.49999904632568 10 -12.5
v -11.49999904632568 1 -12.5
v -11.49999904632568 10 -11.5
v -11.49999904632568 1 -11.5
v -11.49999904632568 10 -11.5
v -11.49999904632568 1 -11.5
v -12.49999904632568 10 -11.5
v -12.49999904632568 1 -11.5
v -12.49999904632568 10 -11.5
v -12.49999904632568 1 -11.5
v -12.49999904632568 10 -12.5
v -12.49999904632568 1 -12.5
v -12.49999904632568 10 -12.5
v -12.49999904632568 1 -12.5
v -11.49999904632568 10 -12.5
v -11.49999904632568 1 -12.5
vt 0.550000011920929 0
vt 0.550000011920929 0.1000000014901161
vt 0.6499999761581421 0
vt 0.6499999761581421 0.1000000014901161
vt 0.1000000014901161 0
vt 0.1000000014901161 0.1000000014901161
vt 0.2000000029802322 0
vt 0.2000000029802322 0.1000000014901161
vt 0.99853515625 0.675000011920929
vt 0.1000000014901161 0.675000011920929
vt 0.99853515625 0.7749999761581421
vt 0.1000000014901161 0.7749999761581421
vt 0 0
vt 0 0.8985351324081421
vt 0.09853515774011612 0
vt 0.09853515774011612 0.8985351324081421
vt 0.99853515625 0.449999988079071
vt 0.1000000014901161 0.449999988079071
vt 0.99853515625 0.550000011920929
vt 0.1000000014901161 0.550000011920929
vt 0.99853515625 0.2249999940395355
vt 0.1000000014901161 0.2249999940395355
vt 0.99853515625 0.324999988079071
vt 0.1000000014901161 0.324999988079071
vn 0 -1 0
vn 0 -1 0
vn 0 -1 0
vn 0 -1 0
vn 0 1 0
vn 0 1 0
vn 0 1 0
vn 0 1 0
vn 1 0 0
vn 1 0 0
vn 1 0 0
vn 1 0 0
vn 0 0 1
vn 0 0 1
vn 0 0 1
vn 0 0 1
vn -1 0 0
vn -1 0 0
vn -1 0 0
vn -1 0 0
vn 0 0 -1
vn 0 0 -1
vn 0 0 -1
vn 0 0 -1
f 86/86/86 85/85/85 87/87/87 88/88/88
f 90/90/90 92/92/92 91/91/91 89/89/89
f 94/94/94 93/93/93 95/95/95 96/96/96
f 98/98/98 97/97/97 99/99/99 100/100/100
f 102/102/102 101/101/101 103/103/103 104/104/104
f 106/106/106 105/105/105 107/107/107 108/108/108
g object_7
v 11.50000095367432 1 -12.5
v 11.50000095367432 1 -11.5
v 12.50000095367432 1 -12.5
v 12.50000095367432 1 -11.5
v 11.50000095367432 10 -12.5
v 11.50000095367432 10 -11.5
v 12.50000095367432 10 -12.5
v 12.50000095367432 10 -11.5
v 12.50000095367432 10 -12.5
v 12.50000095367432 1 -12.5
v 12.50000095367432 10 -11.5
v 12.50000095367432 1 -11.5
v 12.50000095367432 10 -11.5
v 12.50000095367432 1 -11.5
v 11.50000095367432 10 -11.5
v 11.50000095367432 1 -11.5
v 11.50000095367432 10 -11.5
v 11.50000095367432 1 -11.5
v 11.50000095367432 10 -12.5
v 11.50000095367432 1 -12.5
v 11.50000095367432 10 -12.5
v 11.50000095367432 1 -12.5
v 12.50000095367432 10 -12.5
v 12.50000095367432 1 -12.5
vt 0.550000011920929 0
vt 0.550000011920929 0.1000000014901161
vt 0.6499999761581421 0
vt 0.6499999761581421 0.1000000014901161
vt 0.1000000014901161 0
vt 0.1000000014901161 0.1000000014901161
vt 0.2000000029802322 0
vt 0.2000000029802322 0.1000000014901161
vt 0.99853515625 0.675000011920929
vt 0.1000000014901161 0.675000011920929
vt 0.99853515625 0.7749999761581421
vt 0.1000000014901161 0.7749999761581421
vt 0 0
vt 0 0.8985351324081421
vt 0.09853515774011612 0
vt 0.09853515774011612 0.8985351324081421
vt 0.99853515625 0.449999988079071
vt 0.1000000014901161 0.449999988079071
vt 0.99853515625 0.550000011920929
vt 0.1000000014901161 0.550000011920929
vt 0.99853515625 0.2249999940395355
vt 0.1000000014901161 0.2249999940395355
vt 0.99853515625 0.324999988079071
vt 0.1000000014901161 0.324999988079071
vn 0 -1 0
vn 0 -1 0
vn 0 -1 0
vn 0 -1 0
vn 0 1 0
vn 0 1 0
vn 0 1 0
vn 0 1 0
vn 1 0 0
vn 1 0 0
vn 1 0 0
vn 1 0 0
vn 0 0 1
vn 0 0 1
vn 0 0 1
vn 0 0 1
vn -1 0 0
vn -1 0 0
vn -1 0 0
vn -1 0 0
vn 0 0 -1
vn 0 0 -1
vn 0 0 -1
vn 0 0 -1
f 110/110/110 109/109/109 111/111/111 112/112/112
f 114/114/114 116/116/116 115/115/115 113/113/113
f 118/118/118 117/117/117 119/119/119 120/120/120
f 122/122/122 121/121/121 123/123/123 124/124/124
f 126/126/126 125/125/125 127/127/127 128/128/128
f 130/130/130 129/129/129 131/131/131 132/132/132
g object_8
v 11.50000095367432 1 11.5
v 11.50000095367432 1 12.5
v 12.50000095367432 1 11.5
v 12.50000095367432 1 12.5
v 11.50000095367432 10 11.5
v 11.50000095367432 10 12.5
v 12.50000095367432 10 11.5
v 12.50000095367432 10 12.5
v 12.50000095367432 10 11.5
v 12.50000095367432 1 11.5
v 12.50000095367432 10 12.5
v 12.50000095367432 1 12.5
v 12.50000095367432 10 12.5
v 12.50000095367432 1 12.5
v 11.50000095367432 10 12.5
v 11.50000095367432 1 12.5
v 11.50000095367432 10 12.5
v 11.50000095367432 1 12.5
v 11.50000095367432 10 11.5
v 11.50000095367432 1 11.5
v 11.50000095367432 10 11.5
v 11.50000095367432 1 11.5
v 12.50000095367432 10 11.5
v 12.50000095367432 1 11.5
vt 0.550000011920929 0
vt 0.550000011920929 0.1000000014901161
vt 0.6499999761581421 0
vt 0.6499999761581421 0.1000000014901161
vt 0.1000000014901161 0
vt 0.1000000014901161 0.1000000014901161
vt 0.2000000029802322 0
vt 0.2000000029802322 0.1000000014901161
vt 0.99853515625 0.675000011920929
vt 0.1000000014901161 0.675000011920929
vt 0.99853515625 0.7749999761581421
vt 0.1000000014901161 0.7749999761581421
vt 0 0
vt 0 0.8985351324081421
vt 0.09853515774011612 0
vt 0.09853515774011612 0.8985351324081421
vt 0.99853515625 0.449999988079071
vt 0.1000000014901161 0.449999988079071
vt 0.99853515625 0.550000011920929
vt 0.1000000014901161 0.550000011920929
vt 0.99853515625 0.2249999940395355
vt 0.1000000014901161 0.2249999940395355
vt 0.99853515625 0.324999988079071
vt 0.1000000014901161 0.324999988079071
vn 0 -1 0
vn 0 -1 0
vn 0 -1 0
vn 0 -1 0
vn 0 1 0
vn 0 1 0
vn 0 1 0
vn 0 1 0
vn 1 0 0
vn 1 0 0
vn 1 0 0
vn 1 0 0
vn 0 0 1
vn 0 0 1
vn 0 0 1
vn 0 0 1
vn -1 0 0
vn -1 0 0
vn -1 0 0
vn -1 0 0
vn 0 0 -1
vn 0 0 -1
vn 0 0 -1
vn 0 0 -1
f 134/134/134 133/133/133 135/135/135 136/136/136
f 138/138/138 140/140/140 139/139/139 137/137/137
f 142/142/142 141/141/141 143/143/143 144/144/144
f 146/146/146 145/145/145 147/147/147 148/148/148
f 150/150/150 149/149/149 151/151/151 152/152/152
f 154/154/154 153/153/153 155/155/155 156/156/156
g object_9
v -12.49999904632568 1 11.5
v -12.49999904632568 1 12.5
v -11.49999904632568 1 11.5
v -11.49999904632568 1 12.5
v -12.49999904632568 10 11.5
v -12.49999904632568 10 12.5
v -11.49999904632568 10 11.5
v -11.49999904632568 10 12.5
v -11.49999904632568 10 11.5
v -11.49999904632568 1 11.5
v -11.49999904632568 10 12.5
v -11.49999904632568 1 12.5
v -11.49999904632568 10 12.5
v -11.49999904632568 1 12.5
v -12.49999904632568 10 12.5
v -12.49999904632568 1 12.5
v -12.49999904632568 10 12.5
v -12.49999904632568 1 12.5
v -12.49999904632568 10 11.5
v -12.49999904632568 1 11.5
v -12.49999904632568 10 11.5
v -12.49999904632568 1 11.5
v -11.49999904632568 10 11.5
v -11.49999904632568 1 11.5
vt 0.550000011920929 0
vt 0.550000011920929 0.1000000014901161
vt 0.6499999761581421 0
vt 0.6499999761581421 0.1000000014901161
vt 0.1000000014901161 0
vt 0.1000000014901161 0.1000000014901161
vt 0.2000000029802322 0
vt 0.2000000029802322 0.1000000014901161
vt 0.99853515625 0.675000011920929
vt 0.1000000014901161 0.675000011920929
vt 0.99853515625 0.7749999761581421
vt 0.1000000014901161 0.7749999761581421
vt 0 0
vt 0 0.8985351324081421
vt 0.09853515774011612 0
vt 0.09853515774011612 0.8985351324081421
vt 0.99853515625 0.449999988079071
vt 0.1000000014901161 0.449999988079071
vt 0.99853515625 0.550000011920929
vt 0.1000000014901161 0.550000011920929
vt 0.99853515625 0.2249999940395355
vt 0.1000000014901161 0.2249999940395355
vt 0.99853515625 0.324999988079071
vt 0.1000000014901161 0.324999988079071
vn 0 -1 0
vn 0 -1 0
vn 0 -1 0
vn 0 -1 0
vn 0 1 0
vn 0 1 0
vn 0 1 0
vn 0 1 0
vn 1 0 0
vn 1 0 0
vn 1 0 0
vn 1 0 0
vn 0 0 1
vn 0 0 1
vn 0 0 1
vn 0 0 1
vn -1 0 0
vn -1 0 0
vn -1 0 0
vn -1 0 0
vn 0 0 -1
vn 0 0 -1
vn 0 0 -1
vn 0 0 -1
f 158/158/158 157/157/157 159/159/159 160/160/160
f 162/162/162 164/164/164 163/163/163 161/161/161
f 166/166/166 165/165/165 167/167/167 168/168/168
f 170/170/170 169/169/169 171/171/171 172/172/172
f 174/174/174 173/173/173 175/175/175 176/176/176
f 178/178/178 177/177/177 179/179/179 180/180/180
g object_10
v 0.5000007152557373 1 -11.5
v 0.5000007152557373 10 -11.5
v 0.5000007152557373 1 -12.5
v 0.5000007152557373 10 -12.5
v 11.5 1 -11.5
v 11.5 10 -11.5
v 11.5 1 -12.5
v 11.5 10 -12.5
v 11.5 1 -12.5
v 11.5 10 -12.5
v 0.5000007152557373 1 -12.5
v 0.5000007152557373 10 -12.5
v 11.5 10 -12.5
v 0.5000007152557373 10 -11.5
v 11.5 10 -11.5
v 0.5000007152557373 10 -12.5
v 11.5 1 -12.5
v 0.5000007152557373 1 -11.5
v 11.5 1 -11.5
v 0.5000007152557373 1 -12.5
v 0.5000007152557373 1 -11.5
v 0.5000007152557373 10 -11.5
v 11.5 1 -11.5
v 11.5 10 -11.5
vt 0.0555555559694767 0
vt 0.0555555559694767 0.5
vt 0.1096462681889534 0
vt 0.1096462681889534 0.5
vt 0 0
vt 0 0.5
vt 0.0540907122194767 0
vt 0.0540907122194767 0.5
vt 0.2222222238779068 0.5
vt 0.2222222238779068 0.99853515625
vt 0.8318684697151184 0.5
vt 0.8318684697151184 0.99853515625
vt 0.1666666716337204 0.6111111044883728
vt 0.2207573801279068 0
vt 0.2207573801279068 0.6111111044883728
vt 0.1666666716337204 0
vt 0.1111111119389534 0.6111111044883728
vt 0.1652018278837204 0
vt 0.1652018278837204 0.6111111044883728
vt 0.1111111119389534 0
vt 0.2222222238779068 0
vt 0.2222222238779068 0.49853515625
vt 0.8318684697151184 0
vt 0.8318684697151184 0.49853515625
vn -1 0 0
vn -1 0 0
vn -1 0 0
vn -1 0 0
vn 1 0 0
vn 1 0 0
vn 1 0 0
vn 1 0 0
vn -1.221245327087672e-15 0 -1
vn -1.221245327087672e-15 0 -1
vn -1.221245327087672e-15 0 -1
vn -1.221245327087672e-15 0 -1
vn 0 1 0
vn 0 1 0
vn 0 1 0
vn 0 1 0
vn 0 -1 0
vn -1.540743955509789e-31 -1 -1.110223024625157e-16
vn 0 -1 0
vn 0 -1 0
vn 1.221245327087672e-15 0 1
vn 1.221245327087672e-15 0 1
vn 1.221245327087672e-15 0 1
vn 1.221245327087672e-15 0 1
f 182/182/182 184/184/184 183/183/183 181/181/181
f 186/186/186 185/185/185 187/187/187 188/188/188
f 190/190/190 189/189/189 191/191/191 192/192/192
f 193/193/193 196/196/196 194/194/194 195/195/195
f 197/197/197 199/199/199 198/198/198 200/200/200
f 202/202/202 201/201/201 203/203/203 204/204/204
g object_11
v -11.49999904632568 1 -11.5
v -11.49999904632568 10 -11.5
v -11.49999904632568 1 -12.5
v -11.49999904632568 10 -12.5
v -0.499999612569809 1 -11.5
v -0.499999612569809 10 -11.5
v -0.499999612569809 1 -12.5
v -0.499999612569809 10 -12.5
v -0.499999612569809 1 -12.5
v -0.499999612569809 10 -12.5
v -11.49999904632568 1 -12.5
v -11.49999904632568 10 -12.5
v -0.499999612569809 10 -12.5
v -11.49999904632568 10 -11.5
v -0.499999612569809 10 -11.5
v -11.49999904632568 10 -12.5
v -0.499999612569809 1 -12.5
v -11.49999904632568 1 -11.5
v -0.499999612569809 1 -11.5
v -11.49999904632568 1 -12.5
v -11.49999904632568 1 -11.5
v -11.49999904632568 10 -11.5
v -0.499999612569809 1 -11.5
v -0.499999612569809 10 -11.5
vt 0.0555555559694767 0
vt 0.0555555559694767 0.5
vt 0.1096462681889534 0
vt 0.1096462681889534 0.5
vt 0 0
vt 0 0.5
vt 0.0540907122194767 0
vt 0.0540907122194767 0.5
vt 0.2222222238779068 0.5
vt 0.2222222238779068 0.99853515625
vt 0.8318684697151184 0.5
vt 0.8318684697151184 0.99853515625
vt 0.1666666716337204 0.6111111044883728
vt 0.2207573801279068 0
vt 0.2207573801279068 0.6111111044883728
vt 0.1666666716337204 0
vt 0.1111111119389534 0.6111111044883728
vt 0.1652018278837204 0
vt 0.1652018278837204 0.6111111044883728
vt 0.1111111119389534 0
vt 0.2222222238779068 0
vt 0.2222222238779068 0.49853515625
vt 0.8318684697151184 0
vt 0.8318684697151184 0.49853515625
vn -1 0 0
vn -1 0 0
vn -1 0 0
vn -1 0 0
vn 1 0 0
vn 1 0 0
vn 1 0 0
vn 1 0 0
vn -1.221245327087672e-15 0 -1
vn -1.221245327087672e-15 0 -1
vn -1.221245327087672e-15 0 -1
vn -1.221245327087672e-15 0 -1
vn 0 1 0
vn 0 1 0
vn 0 1 0
vn 0 1 0
vn 0 -1 0
vn -1.540743955509789e-31 -1 -1.110223024625157e-16
vn 0 -1 0
vn 0 -1 0
vn 1.221245327087672e-15 0 1
vn 1.221245327087672e-15 0 1
vn 1.221245327087672e-15 0 1
vn 1.221245327087672e-15 0 1
f 206/206/206 208/208/208 207/207/207 205/205/205
f 210/210/210 209/209/209 211/211/211 212/212/212
f 214/214/214 213/213/213 215/215/215 216/216/216
f 217/217/217 220/220/220 218/218/218 219/219/219
f 221/221/221 223/223/223 222/222/222 224/224/224
f 226/226/226 225/225/225 227/227/227 228/228/228
g object_12
v -11.49999904632568 1 12.5
v -11.49999904632568 10 12.5
v -11.49999904632568 1 11.5
v -11.49999904632568 10 11.5
v -0.499999612569809 1 12.5
v -0.499999612569809 10 12.5
v -0.499999612569809 1 11.5
v -0.499999612569809 10 11.5
v -0.499999612569809 1 11.5
v -0.499999612569809 10 11.5
v -11.49999904632568 1 11.5
v -11.49999904632568 10 11.5
v -0.499999612569809 10 11.5
v -11.49999904632568 10 12.5
v -0.499999612569809 10 12.5
v -11.49999904632568 10 11.5
v -0.499999612569809 1 11.5
v -11.49999904632568 1 12.5
v -0.499999612569809 1 12.5
v -11.49999904632568 1 11.5
v -11.49999904632568 1 12.5
v -11.49999904632568 10 12.5
v -0.499999612569809 1 12.5
v -0.499999612569809 10 12.5
vt 0.0555555559694767 0
vt 0.0555555559694767 0.5
vt 0.1096462681889534 0
vt 0.1096462681889534 0.5
vt 0 0
vt 0 0.5
vt 0.0540907122194767 0
vt 0.0540907122194767 0.5
vt 0.2222222238779068 0.5
vt 0.2222222238779068 0.99853515625
vt 0.8318684697151184 0.5
vt 0.8318684697151184 0.99853515625
vt 0.1666666716337204 0.6111111044883728
vt 0.2207573801279068 0
vt 0.2207573801279068 0.6111111044883728
vt 0.1666666716337204 0
vt 0.1111111119389534 0.6111111044883728
vt 0.1652018278837204 0
vt 0.1652018278837204 0.6111111044883728
vt 0.1111111119389534 0
vt 0.2222222238779068 0
vt 0.2222222238779068 0.49853515625
vt 0.8318684697151184 0
vt 0.8318684697151184 0.49853515625
vn -1 0 0
vn -1 0 0
vn -1 0 0
vn -1 0 0
vn 1 0 0
vn 1 0 0
vn 1 0 0
vn 1 0 0
vn -1.221245327087672e-15 0 -1
vn -1.221245327087672e-15 0 -1
vn -1.221245327087672e-15 0 -1
vn -1.221245327087672e-15 0 -1
vn 0 1 0
vn 0 1 0
vn 0 1 0
vn 0 1 0
vn 0 -1 0
vn -1.60237371373018e-31 -1 -1.110223024625157e-16
vn 0 -1 0
vn 0 -1 0
vn 1.332267629550188e-15 0 1
vn 1.332267629550188e-15 0 1
vn 1.332267629550188e-15 0 1
vn 1.332267629550188e-15 0 1
f 230/230/230 232/232/232 231/231/231 229/229/229
f 234/234/234 233/233/233 235/235/235 236/236/236
f 238/238/238 237/237/237 239/239/239 240/240/240
f 241/241/241 244/244/244 242/242/242 243/243/243
f 245/245/245 247/247/247 246/246/246 248/248/248
f 250/250/250 249/249/249 251/251/251 252/252/252
g object_13
v 0.5000007152557373 1 12.5
v 0.5000007152557373 10 12.5
v 0.5000007152557373 1 11.5
v 0.5000007152557373 10 11.5
v 11.5 1 12.5
v 11.5 10 12.5
v 11.5 1 11.5
v 11.5 10 11.5
v 11.5 1 11.5
v 11.5 10 11.5
v 0.5000007152557373 1 11.5
v 0.5000007152557373 10 11.5
v 11.5 10 11.5
v 0.5000007152557373 10 12.5
v 11.5 10 12.5
v 0.5000007152557373 10 11.5
v 11.5 1 11.5
v 0.5000007152557373 1 12.5
v 11.5 1 12.5
v 0.5000007152557373 1 11.5
v 0.5000007152557373 1 12.5
v 0.5000007152557373 10 12.5
v 11.5 1 12.5
v 11.5 10 12.5
vt 0.0555555559694767 0
vt 0.0555555559694767 0.5
vt 0.1096462681889534 0
vt 0.1096462681889534 0.5
vt 0 0
vt 0 0.5
vt 0.0540907122194767 0
vt 0.0540907122194767 0.5
vt 0.2222222238779068 0.5
vt 0.2222222238779068 0.99853515625
vt 0.8318684697151184 0.5
vt 0.8318684697151184 0.99853515625
vt 0.1666666716337204 0.6111111044883728
vt 0.2207573801279068 0
vt 0.2207573801279068 0.6111111044883728
vt 0.1666666716337204 0
vt 0.1111111119389534 0.6111111044883728
vt 0.1652018278837204 0
vt 0.1652018278837204 0.6111111044883728
vt 0.1111111119389534 0
vt 0.2222222238779068 0
vt 0.2222222238779068 0.49853515625
vt 0.8318684697151184 0
vt 0.8318684697151184 0.49853515625
vn -1 0 0
vn -1 0 0
vn -1 0 0
vn -1 0 0
vn 1 0 0
vn 1 0 0
vn 1 0 0
vn 1 0 0
vn -1.221245327087672e-15 0 -1
vn -1.221245327087672e-15 0 -1
vn -1.221245327087672e-15 0 -1
vn -1.221245327087672e-15 0 -1
vn 0 1 0
vn 0 1 0
vn 0 1 0
vn 0 1 0
vn 0 -1 0
vn -1.60237371373018e-31 -1 -1.110223024625157e-16
vn 0 -1 0
vn 0 -1 0
vn 1.332267629550188e-15 0 1
vn 1.332267629550188e-15 0 1
vn 1.332267629550188e-15 0 1
vn 1.332267629550188e-15 0 1
f 254/254/254 256/256/256 255/255/255 253/253/253
f 258/258/258 257/257/257 259/259/259 260/260/260
f 262/262/262 261/261/261 263/263/263 264/264/264
f 265/265/265 268/268/268 266/266/266 267/267/267
f 269/269/269 271/271/271 270/270/270 272/272/272
f 274/274/274 273/273/273 275/275/275 276/276/276
g object_14
v -0.4999992847442627 1 -12.5
v -0.4999992847442627 10 -12.5
v 0.5000007152557373 1 -12.5
v 0.5000007152557373 10 -12.5
v -0.4999992847442627 1 12.5
v -0.4999992847442627 10 12.5
v 0.5000007152557373 1 12.5
v 0.5000007152557373 10 12.5
v -0.4999992847442627 10 -12.5
v 0.5000007152557373 10 12.5
v 0.5000007152557373 10 -12.5
v -0.4999992847442627 10 12.5
v -0.4999992847442627 1 12.5
v 0.5000007152557373 1 -12.5
v -0.4999992847442627 1 -12.5
v 0.5000007152557373 1 12.5
v 0.5000007152557373 1 12.5
v 0.5000007152557373 10 -12.5
v 0.5000007152557373 1 -12.5
v 0.5000007152557373 10 12.5
v -0.4999992847442627 10 -12.5
v -0.4999992847442627 1 12.5
v -0.4999992847442627 10 12.5
v -0.4999992847442627 1 -12.5
vt 0.4074074029922485 0.04629629477858543
vt 0.07407407462596893 0.04629629477858543
vt 0.4074074029922485 0.0833333358168602
vt 0.07407407462596893 0.0833333358168602
vt 0.4074074029922485 0
vt 0.07407407462596893 0
vt 0.4074074029922485 0.03703703731298447
vt 0.07407407462596893 0.03703703731298447
vt 0 0.9244610667228699
vt 0.03557219356298447 0
vt 0.03557219356298447 0.9244610667228699
vt 0 0
vt 0.03703703731298447 0
vt 0.07260923087596893 0.9244610667228699
vt 0.03703703731298447 0.9244610667228699
vt 0.07260923087596893 0
vt 0.07407407462596893 0.09259258955717087
vt 0.99853515625 0.4259259402751923
vt 0.99853515625 0.09259258955717087
vt 0.07407407462596893 0.4259259402751923
vt 0.07407407462596893 0.8425925970077515
vt 0.99853515625 0.5092592835426331
vt 0.99853515625 0.8425925970077515
vt 0.07407407462596893 0.5092592835426331
vn 0 -3.820505689589027e-09 -1
vn 0 -3.820505689589027e-09 -1
vn 0 -3.820505689589027e-09 -1
vn 0 -3.820505689589027e-09 -1
vn 0 3.820504801410607e-09 1
vn 0 3.820504801410607e-09 1
vn 0 3.820504801410607e-09 1
vn 0 3.820504801410607e-09 1
vn 0 1 0
vn -5.551115123125783e-17 1 0
vn 0 1 0
vn -2.498001805406602e-16 1 0
vn -6.938893903907228e-18 -1 0
vn 0 -1 0
vn 0 -1 0
vn -1.387778780781446e-17 -1 0
vn 1 0 0
vn 1 0 0
vn 1 0 0
vn 1 0 0
vn -1 0 0
vn -1 0 0
vn -1 0 0
vn -1 0 0
f 278/278/278 280/280/280 279/279/279 277/277/277
f 282/282/282 281/281/281 283/283/283 284/284/284
f 285/285/285 288/288/288 286/286/286 287/287/287
f 291/291/291 290/290/290 292/292/292 289/289/289
f 296/296/296 293/293/293 295/295/295 294/294/294
f 297/297/297 300/300/300 298/298/298 299/299/299
