# Rhino

g object_1
v -11.5 1 -0.5
v 10.792893409729 1 -11.5
v -11.5 1 -11.5
v -0.2071067839860916 1 -0.5
vt 0 1
vt 1 0
vt 1 1
vt 0 0.4934307932853699
vn 0 1 0
vn 6.018531076210112e-34 1 2.168404344971009e-18
vn 0 1 0
vn 0 1 0
f 3/3/3 1/1/1 4/4/4
f 4/4/4 2/2/2 3/3/3
g object_2
v 10.792893409729 1 11.5
v -11.5 1 11.5
v -0.2071067839860916 1 0.5
v -11.5 1 0.5
vt 0 0
vt 0 1
vt 1 0.4934307932853699
vt 1 1
vn 6.018531076210112e-34 1 2.168404344971009e-18
vn 0 1 0
vn 0 1 0
vn 0 1 0
f 6/6/6 5/5/5 7/7/7 8/8/8
g object_3
v 12.5 10 12.5
v -12.5 10 12.5
v 12.5 10 -12.5
v -12.5 10 -12.5
v -0.2071067839860916 10 -0.5
v -11.5 10 -0.5
v -11.5 10 -11.5
v 10.792893409729 10 -11.5
v -11.5 10 0.5
v -0.2071067839860916 10 0.5
v 10.792893409729 10 11.5
v -11.5 10 11.5
v 11.5 10 -10.792893409729
v 11.5 10 10.792893409729
v 0.7071067690849304 10 -1.962615572853209e-16
v 6.103553295135498 10 -5.396446704864502
v 5.292893886566162 10 6.000000476837158
v 6.103553295135498 10 5.396446704864502
v 12.5 1 12.5
v -12.5 1 12.5
v 12.5 1 -12.5
v -12.5 1 -12.5
v 12.5 1 12.5
v 12.5 10 12.5
v 12.5 1 -12.5
v 12.5 10 -12.5
v 12.5 1 -12.5
v 12.5 10 -12.5
v -12.5 1 -12.5
v -12.5 10 -12.5
v -12.5 1 -12.5
v -12.5 10 -12.5
v -12.5 1 12.5
v -12.5 10 12.5
v -12.5 1 12.5
v -12.5 10 12.5
v 12.5 1 12.5
v 12.5 10 12.5
v -0.2071067839860916 1 -0.5
v -0.2071067839860916 10 -0.5
v -11.5 1 -0.5
v -11.5 10 -0.5
v 10.792893409729 1 -11.5
v 10.792893409729 10 -11.5
v -0.2071067839860916 1 -0.5
v -0.2071067839860916 10 -0.5
v 11.5 1 -10.792893409729
v 11.5 10 -10.792893409729
v 6.103553295135498 1 -5.396446704864502
v 6.103553295135498 10 -5.396446704864502
v 0.7071067690849304 1 -1.962615572853209e-16
v 0.7071067690849304 10 -1.962615572853209e-16
v 0.7071067690849304 5.5 -1.962615572853209e-16
v 10.792893409729 1 11.5
v 10.792893409729 10 11.5
v 5.292893886566162 1 6.000000476837158
v 5.292893886566162 10 6.000000476837158
v -0.2071067839860916 1 0.5
v -0.2071067839860916 10 0.5
v -0.2071067839860916 1 0.5
v -0.2071067839860916 10 0.5
v -11.5 1 0.5
v -11.5 10 0.5
v 11.5 1 10.792893409729
v 11.5 10 10.792893409729
v 6.103553295135498 1 5.396446704864502
v 6.103553295135498 10 5.396446704864502
v 0.7071067690849304 1 -1.962615572853209e-16
v 0.7071067690849304 10 -1.962615572853209e-16
v 0.7071067690849304 5.5 -1.962615572853209e-16
v -11.5 1 0.5
v -11.5 10 0.5
v -11.5 1 11.5
v -11.5 10 11.5
v -11.5 1 11.5
v -11.5 10 11.5
v 10.792893409729 1 11.5
v 10.792893409729 10 11.5
v 11.5 1 10.792893409729
v 11.5 10 10.792893409729
v 11.5 1 -10.792893409729
v 11.5 10 -10.792893409729
v 10.792893409729 1 -11.5
v 10.792893409729 10 -11.5
v -11.5 1 -11.5
v -11.5 10 -11.5
v -11.5 1 -11.5
v -11.5 10 -11.5
v -11.5 1 -0.5
v -11.5 10 -0.5
vt 0.99853515625 0.4652148485183716
vt 0.6541845202445984 0.4652148485183716
vt 0.99853515625 0.8110303282737732
vt 0.6541845202445984 0.8110303282737732
vt 0.8235071301460266 0.645038902759552
vt 0.6679585576057434 0.645038902759552
vt 0.6679585576057434 0.797197699546814
vt 0.9750214219093323 0.797197699546814
vt 0.6679585576057434 0.6312062740325928
vt 0.8235071301460266 0.6312062740325928
vt 0.9750214219093323 0.4790474772453308
vt 0.6679585576057434 0.4790474772453308
vt 0.984761118888855 0.7874165773391724
vt 0.984761118888855 0.4888285994529724
vt 0.8360995650291443 0.63812255859375
vt 0.910430371761322 0.7127695679664612
vt 0.8992642760276794 0.5551268458366394
vt 0.910430371761322 0.5634756088256836
vt 0.99853515625 0
vt 0.6541845202445984 0
vt 0.99853515625 0.3458154499530792
vt 0.6541845202445984 0.3458154499530792
vt 0.3083690702915192 0.5948026180267334
vt 0.3083690702915192 0.7178313136100769
vt 0.6527196764945984 0.5948026180267334
vt 0.6527196764945984 0.7178313136100769
vt 0.2880397140979767 0
vt 0.1635461300611496 0
vt 0.2880397140979767 0.3443506062030792
vt 0.1635461300611496 0.3443506062030792
vt 0.1244935616850853 0
vt 0 0
vt 0.1244935616850853 0.3443506062030792
vt 0 0.3443506062030792
vt 0.6151319742202759 0
vt 0.49063840508461 0
vt 0.6151319742202759 0.3443506062030792
vt 0.49063840508461 0.3443506062030792
vt 0.4790050685405731 0.4703090190887451
vt 0.4790050685405731 0.5933377742767334
vt 0.6352153420448303 0.4703090190887451
vt 0.6352153420448303 0.5933377742767334
vt 0.2786781191825867 0.3458154499530792
vt 0.1541845351457596 0.3458154499530792
vt 0.2786781191825867 0.5610005259513855
vt 0.1541845351457596 0.5610005259513855
vt 0.6057703495025635 0.7192961573600769
vt 0.48127681016922 0.7192961573600769
vt 0.6057703495025635 0.8241305351257324
vt 0.48127681016922 0.8241305351257324
vt 0.6057703495025635 0.9289648532867432
vt 0.48127681016922 0.9289648532867432
vt 0.5435236096382141 0.9289648532867432
vt 0.1244935616850853 0.3458154499530792
vt 0 0.3458154499530792
vt 0.1244935616850853 0.4534080028533936
vt 0 0.4534080028533936
vt 0.1244935616850853 0.5610005259513855
vt 0 0.5610005259513855
vt 0.4790050685405731 0.3458154499530792
vt 0.4790050685405731 0.4688441753387451
vt 0.6352153420448303 0.3458154499530792
vt 0.6352153420448303 0.4688441753387451
vt 0.4328626394271851 0.7192961573600769
vt 0.3083690702915192 0.7192961573600769
vt 0.4328626394271851 0.8241305351257324
vt 0.3083690702915192 0.8241305351257324
vt 0.4328626394271851 0.9289648532867432
vt 0.3083690702915192 0.9289648532867432
vt 0.3706158697605133 0.9289648532867432
vt 0.3083690702915192 0.4703090190887451
vt 0.3083690702915192 0.5933377742767334
vt 0.4605278968811035 0.4703090190887451
vt 0.4605278968811035 0.5933377742767334
vt 0.4515858292579651 0
vt 0.3270922601222992 0
vt 0.4515858292579651 0.3083690702915192
vt 0.3270922601222992 0.3083690702915192
vt 0 0.6168361306190491
vt 0 0.7413296699523926
vt 0.2985879480838776 0.6168361306190491
vt 0.2985879480838776 0.7413296699523926
vt 0 0.7736328840255737
vt 0 0.898126482963562
vt 0.3069042265415192 0.7736328840255737
vt 0.3069042265415192 0.898126482963562
vt 0.3083690702915192 0.3458154499530792
vt 0.3083690702915192 0.4688441753387451
vt 0.4605278968811035 0.3458154499530792
vt 0.4605278968811035 0.4688441753387451
vn 0 1 0
vn 0 1 0
vn 0 1 0
vn 0 1 0
vn 0 1 0
vn 0 1 0
vn 0 1 0
vn 0 1 0
vn 0 1 0
vn 0 1 0
vn 0 1 0
vn 0 1 0
vn 0 1 0
vn 0 1 0
vn 0 1 0
vn 0 1 0
vn 0 1 0
vn 0 1 0
vn 0 -1 0
vn 0 -1 0
vn 0 -1 0
vn 0 -1 0
vn 1 0 -2.220446049250313e-16
vn 1 0 -2.220446049250313e-16
vn 1 0 -2.220446049250313e-16
vn 1 0 -2.220446049250313e-16
vn -2.220446049250313e-16 0 -1
vn -2.220446049250313e-16 0 -1
vn -2.220446049250313e-16 0 -1
vn -2.220446049250313e-16 0 -1
vn -1 0 2.220446049250313e-16
vn -1 0 2.220446049250313e-16
vn -1 0 2.220446049250313e-16
vn -1 0 2.220446049250313e-16
vn 2.220446049250313e-16 0 1
vn 2.220446049250313e-16 0 1
vn 2.220446049250313e-16 0 1
vn 2.220446049250313e-16 0 1
vn -2.775557561562891e-16 0 -1
vn -2.775557561562891e-16 0 -1
vn -2.775557561562891e-16 0 -1
vn -2.775557561562891e-16 0 -1
vn -0.7071067690849304 0 -0.7071067690849304
vn -0.7071067690849304 0 -0.7071067690849304
vn -0.7071067690849304 0 -0.7071067690849304
vn -0.7071067690849304 0 -0.7071067690849304
vn 0.7071067690849304 0 0.7071067690849304
vn 0.7071067690849304 0 0.7071067690849304
vn 0.7071067690849304 0 0.7071067690849304
vn 0.7071067690849304 0 0.7071067690849304
vn 0.7071067690849304 0 0.7071067690849304
vn 0.7071067690849304 0 0.7071067690849304
vn 0.7071067690849304 0 0.7071067690849304
vn -0.7071067690849304 0 0.7071067690849304
vn -0.7071067690849304 0 0.7071067690849304
vn -0.7071067690849304 0 0.7071067690849304
vn -0.7071067690849304 0 0.7071067690849304
vn -0.7071067690849304 0 0.7071067690849304
vn -0.7071067690849304 0 0.7071067690849304
vn 2.775557561562891e-16 0 1
vn 2.775557561562891e-16 0 1
vn 2.775557561562891e-16 0 1
vn 2.775557561562891e-16 0 1
vn 0.7071067690849304 0 -0.7071067690849304
vn 0.7071067690849304 0 -0.7071067690849304
vn 0.7071067690849304 0 -0.7071067690849304
vn 0.7071067690849304 0 -0.7071067690849304
vn 0.7071067690849304 0 -0.7071067690849304
vn 0.7071067690849304 0 -0.7071067690849304
vn 0.7071067690849304 0 -0.7071067690849304
vn 1 0 -2.220446049250313e-16
vn 1 0 -2.220446049250313e-16
vn 1 0 -2.220446049250313e-16
vn 1 0 -2.220446049250313e-16
vn -3.33066907387547e-16 0 -1
vn -3.33066907387547e-16 0 -1
vn -3.33066907387547e-16 0 -1
vn -3.33066907387547e-16 0 -1
vn -1 0 3.33066907387547e-16
vn -1 0 3.33066907387547e-16
vn -1 0 3.33066907387547e-16
vn -1 0 3.33066907387547e-16
vn 3.33066907387547e-16 0 1
vn 3.33066907387547e-16 0 1
vn 3.33066907387547e-16 0 1
vn 3.33066907387547e-16 0 1
vn 1 0 -4.440892098500626e-16
vn 1 0 -4.440892098500626e-16
vn 1 0 -4.440892098500626e-16
vn 1 0 -4.440892098500626e-16
f 10/10/10 9/9/9 19/19/19 20/20/20
f 22/22/22 19/19/19 9/9/9
f 19/19/19 22/22/22 26/26/26
f 9/9/9 11/11/11 21/21/21 22/22/22
f 25/25/25 19/19/19 26/26/26
f 17/17/17 10/10/10 20/20/20
f 25/25/25 23/23/23 18/18/18
f 14/14/14 17/17/17 18/18/18 13/13/13
f 14/14/14 10/10/10 17/17/17
f 23/23/23 25/25/25 26/26/26
f 16/16/16 24/24/24 21/21/21
f 11/11/11 12/12/12 15/15/15 16/16/16
f 21/21/21 11/11/11 16/16/16
f 23/23/23 13/13/13 18/18/18
f 23/23/23 24/24/24 13/13/13
f 24/24/24 16/16/16 13/13/13
f 14/14/14 15/15/15 12/12/12
f 10/10/10 14/14/14 12/12/12
f 28/28/28 30/30/30 29/29/29 27/27/27
f 32/32/32 31/31/31 33/33/33 34/34/34
f 36/36/36 35/35/35 37/37/37 38/38/38
f 40/40/40 39/39/39 41/41/41 42/42/42
f 44/44/44 43/43/43 45/45/45 46/46/46
f 48/48/48 47/47/47 49/49/49 50/50/50
f 52/52/52 51/51/51 53/53/53 54/54/54
f 56/56/56 58/58/58 57/57/57 55/55/55
f 57/57/57 58/58/58 61/61/61
f 61/61/61 58/58/58 60/60/60
f 59/59/59 57/57/57 61/61/61
f 63/63/63 65/65/65 64/64/64 62/62/62
f 66/66/66 64/64/64 65/65/65 67/67/67
f 69/69/69 71/71/71 70/70/70 68/68/68
f 73/73/73 72/72/72 74/74/74 75/75/75
f 74/74/74 78/78/78 75/75/75
f 78/78/78 77/77/77 75/75/75
f 76/76/76 78/78/78 74/74/74
f 80/80/80 82/82/82 81/81/81 79/79/79
f 84/84/84 86/86/86 85/85/85 83/83/83
f 88/88/88 90/90/90 89/89/89 87/87/87
f 92/92/92 94/94/94 93/93/93 91/91/91
f 96/96/96 98/98/98 97/97/97 95/95/95
g object_4
v 12.5 0 12.5
v 12.5 1 12.5
v 12.5 0 -12.5
v 12.5 1 -12.5
v 12.5 0 -12.5
v 12.5 1 -12.5
v -12.5 0 -12.5
v -12.5 1 -12.5
v -12.5 0 -12.5
v -12.5 1 -12.5
v -12.5 0 12.5
v -12.5 1 12.5
v -12.5 0 12.5
v -12.5 1 12.5
v 12.5 0 12.5
v 12.5 1 12.5
v 12.5 0 12.5
v -12.5 0 12.5
v 12.5 0 -12.5
v -12.5 0 -12.5
v 12.5 1 12.5
v -12.5 1 12.5
v 12.5 1 -12.5
v -12.5 1 -12.5
v 11.5 1 -11.5
v 11.5 1 11.5
v -11.5 1 -11.5
v -11.5 1 11.5
vt 0.03853515535593033 0
vt 0.01999999955296516 0
vt 0.03853515535593033 0.5
vt 0.01999999955296516 0.5
vt 0.01853515580296516 0
vt 0 0
vt 0.01853515580296516 0.5
vt 0 0.5
vt 0.07853515446186066 0
vt 0.05999999865889549 0
vt 0.07853515446186066 0.5
vt 0.05999999865889549 0.5
vt 0.05853515490889549 0
vt 0.03999999910593033 0
vt 0.05853515490889549 0.5
vt 0.03999999910593033 0.5
vt 0.5785351395606995 0.5
vt 0.07999999821186066 0.5
vt 0.5785351395606995 0.99853515625
vt 0.07999999821186066 0.99853515625
vt 0.5785351395606995 0
vt 0.07999999821186066 0
vt 0.5785351395606995 0.49853515625
vt 0.07999999821186066 0.49853515625
vt 0.55859375 0.4785937368869782
vt 0.55859375 0.01994140632450581
vt 0.09994141757488251 0.4785937368869782
vt 0.09994141757488251 0.01994140632450581
vn 1 0 -2.220446049250313e-16
vn 1 0 -2.220446049250313e-16
vn 1 0 -2.220446049250313e-16
vn 1 0 -2.220446049250313e-16
vn -2.220446049250313e-16 0 -1
vn -2.220446049250313e-16 0 -1
vn -2.220446049250313e-16 0 -1
vn -2.220446049250313e-16 0 -1
vn -1 0 2.220446049250313e-16
vn -1 0 2.220446049250313e-16
vn -1 0 2.220446049250313e-16
vn -1 0 2.220446049250313e-16
vn 2.220446049250313e-16 0 1
vn 2.220446049250313e-16 0 1
vn 2.220446049250313e-16 0 1
vn 2.220446049250313e-16 0 1
vn 0 -1 0
vn 0 -1 0
vn 0 -1 0
vn 0 -1 0
vn 0 1 0
vn 0 1 0
vn 0 1 0
vn 0 1 0
vn 0 1 0
vn 0 1 0
vn 0 1 0
vn 0 1 0
f 100/100/100 99/99/99 101/101/101 102/102/102
f 104/104/104 103/103/103 105/105/105 106/106/106
f 108/108/108 107/107/107 109/109/109 110/110/110
f 112/112/112 111/111/111 113/113/113 114/114/114
f 116/116/116 118/118/118 117/117/117 115/115/115
f 124/124/124 126/126/126 120/120/120 119/119/119
f 119/119/119 121/121/121 123/123/123 124/124/124
f 126/126/126 125/125/125 122/122/122 120/120/120
f 121/121/121 122/122/122 125/125/125 123/123/123
g object_5
v 11.5 1 10.792893409729
v 11.5 1 -10.792893409729
v 0.7071067690849304 1 -1.962615572853209e-16
vt 0 0
vt 1 0
vt 0.5 1
vn 0 1 0
vn 0 1 0
vn 0 1 0
f 129/129/129 127/127/127 128/128/128
