# Rhino

g object_1
v -11.5 1 11.5
v -11.5 1 -11.5
v -0.5 1 11.5
v -0.5 1 -11.5
v 0.5 1 11.5
v 0.5 1 -11.5
v 11.5 1 11.5
v 11.5 1 -11.5
v -11.5 1 11.5
v -11.5 10 11.5
v -0.5 1 11.5
v -0.5 10 11.5
v -0.5 1 11.5
v -0.5 10 11.5
v -0.5 1 -11.5
v -0.5 10 -11.5
v -0.5 1 -11.5
v -0.5 10 -11.5
v -11.5 1 -11.5
v -11.5 10 -11.5
v -11.5 1 -11.5
v -11.5 10 -11.5
v -11.5 1 11.5
v -11.5 10 11.5
v -12.5 10 12.5
v -12.5 10 -12.5
v 12.5 10 12.5
v 12.5 10 -12.5
v -0.5 10 11.5
v -11.5 10 11.5
v -0.5 10 -11.5
v -11.5 10 -11.5
v 11.5 10 11.5
v 0.5 10 11.5
v 11.5 10 -11.5
v 0.5 10 -11.5
v -12.5 1 12.5
v -12.5 1 -12.5
v 12.5 1 12.5
v 12.5 1 -12.5
v -12.5 1 12.5
v -12.5 10 12.5
v 12.5 1 12.5
v 12.5 10 12.5
v 12.5 1 12.5
v 12.5 10 12.5
v 12.5 1 -12.5
v 12.5 10 -12.5
v 12.5 1 -12.5
v 12.5 10 -12.5
v -12.5 1 -12.5
v -12.5 10 -12.5
v -12.5 1 -12.5
v -12.5 10 -12.5
v -12.5 1 12.5
v -12.5 10 12.5
v 0.5 1 11.5
v 0.5 10 11.5
v 11.5 1 11.5
v 11.5 10 11.5
v 11.5 1 11.5
v 11.5 10 11.5
v 11.5 1 -11.5
v 11.5 10 -11.5
v 11.5 1 -11.5
v 11.5 10 -11.5
v 0.5 1 -11.5
v 0.5 10 -11.5
v 0.5 1 -11.5
v 0.5 10 -11.5
v 0.5 1 11.5
v 0.5 10 11.5
vt 0.9726027250289917 0.2180122435092926
vt 0.6575342416763306 0.2180122435092926
vt 0.9726027250289917 0.3686971664428711
vt 0.6575342416763306 0.3686971664428711
vt 0.9726027250289917 0
vt 0.6575342416763306 0
vt 0.9726027250289917 0.1506849378347397
vt 0.6575342416763306 0.1506849378347397
vt 0.3150684833526611 0.465753436088562
vt 0.3150684833526611 0.5875762701034546
vt 0.465753436088562 0.465753436088562
vt 0.465753436088562 0.5875762701034546
vt 0 0.4897260367870331
vt 0 0.6130136847496033
vt 0.3136036396026611 0.4897260367870331
vt 0.3136036396026611 0.6130136847496033
vt 0.3150684833526611 0.3424657583236694
vt 0.3150684833526611 0.464288592338562
vt 0.465753436088562 0.3424657583236694
vt 0.465753436088562 0.464288592338562
vt 0 0.3424657583236694
vt 0 0.465753436088562
vt 0.3136036396026611 0.3424657583236694
vt 0.3136036396026611 0.465753436088562
vt 0.6560693979263306 0.5890411138534546
vt 0.3150684833526611 0.5890411138534546
vt 0.6560693979263306 0.930042028427124
vt 0.3150684833526611 0.930042028427124
vt 0.6424293518066406 0.7527215480804443
vt 0.6424293518066406 0.6026811599731445
vt 0.3287085294723511 0.7527215480804443
vt 0.3287085294723511 0.6026811599731445
vt 0.6424293518066406 0.9164019823074341
vt 0.6424293518066406 0.7663615345954895
vt 0.3287085294723511 0.9164019823074341
vt 0.3287085294723511 0.7663615345954895
vt 0.99853515625 0.4360244870185852
vt 0.6575342416763306 0.4360244870185852
vt 0.99853515625 0.7784902453422546
vt 0.6575342416763306 0.7784902453422546
vt 0.2876712381839752 0
vt 0.1643835604190826 0
vt 0.2876712381839752 0.3410009145736694
vt 0.1643835604190826 0.3410009145736694
vt 0.123287670314312 0
vt 0 0
vt 0.123287670314312 0.3410009145736694
vt 0 0.3410009145736694
vt 0.6164383292198181 0
vt 0.4931506812572479 0
vt 0.6164383292198181 0.3410009145736694
vt 0.4931506812572479 0.3410009145736694
vt 0.4520547986030579 0
vt 0.3287671208381653 0
vt 0.4520547986030579 0.3410009145736694
vt 0.3287671208381653 0.3410009145736694
vt 0.4863013625144959 0.465753436088562
vt 0.4863013625144959 0.5875762701034546
vt 0.6369863152503967 0.465753436088562
vt 0.6369863152503967 0.5875762701034546
vt 0 0.784246563911438
vt 0 0.9075342416763306
vt 0.3136036396026611 0.784246563911438
vt 0.3136036396026611 0.9075342416763306
vt 0.4863013625144959 0.3424657583236694
vt 0.4863013625144959 0.464288592338562
vt 0.6369863152503967 0.3424657583236694
vt 0.6369863152503967 0.464288592338562
vt 0 0.6369863152503967
vt 0 0.7602739930152893
vt 0.3136036396026611 0.6369863152503967
vt 0.3136036396026611 0.7602739930152893
vn 0 1 0
vn 0 1 0
vn 0 1 0
vn 0 1 0
vn 0 1 0
vn 0 1 0
vn 0 1 0
vn 0 1 0
vn 0 0 -1
vn 0 0 -1
vn 0 0 -1
vn 0 0 -1
vn -1 0 0
vn -1 0 0
vn -1 0 0
vn -1 0 0
vn 0 0 1
vn 0 0 1
vn 0 0 1
vn 0 0 1
vn 1 0 0
vn 1 0 0
vn 1 0 0
vn 1 0 0
vn 0 1 0
vn 0 1 0
vn 0 1 0
vn 0 1 0
vn 0 1 0
vn 0 1 0
vn 0 1 0
vn 0 1 0
vn 0 1 0
vn 0 1 0
vn 0 1 0
vn 0 1 0
vn 0 -1 0
vn 0 -1 0
vn 0 -1 0
vn 0 -1 0
vn 0 0 1
vn 0 0 1
vn 0 0 1
vn 0 0 1
vn 1 0 0
vn 1 0 0
vn 1 0 0
vn 1 0 0
vn 0 0 -1
vn 0 0 -1
vn 0 0 -1
vn 0 0 -1
vn -1 0 0
vn -1 0 0
vn -1 0 0
vn -1 0 0
vn 0 0 -1
vn 0 0 -1
vn 0 0 -1
vn 0 0 -1
vn -1 0 0
vn -1 0 0
vn -1 0 0
vn -1 0 0
vn 0 0 1
vn 0 0 1
vn 0 0 1
vn 0 0 1
vn 1 0 0
vn 1 0 0
vn 1 0 0
vn 1 0 0
f 2/2/2 1/1/1 3/3/3 4/4/4
f 6/6/6 5/5/5 7/7/7 8/8/8
f 10/10/10 12/12/12 11/11/11 9/9/9
f 14/14/14 16/16/16 15/15/15 13/13/13
f 18/18/18 20/20/20 19/19/19 17/17/17
f 22/22/22 24/24/24 23/23/23 21/21/21
f 30/30/30 25/25/25 29/29/29
f 25/25/25 27/27/27 34/34/34 29/29/29
f 30/30/30 32/32/32 26/26/26 25/25/25
f 31/31/31 26/26/26 32/32/32
f 36/36/36 26/26/26 31/31/31
f 31/31/31 29/29/29 34/34/34 36/36/36
f 33/33/33 34/34/34 27/27/27
f 27/27/27 28/28/28 35/35/35 33/33/33
f 28/28/28 36/36/36 35/35/35
f 26/26/26 36/36/36 28/28/28
f 38/38/38 40/40/40 39/39/39 37/37/37
f 42/42/42 41/41/41 43/43/43 44/44/44
f 46/46/46 45/45/45 47/47/47 48/48/48
f 50/50/50 49/49/49 51/51/51 52/52/52
f 54/54/54 53/53/53 55/55/55 56/56/56
f 58/58/58 60/60/60 59/59/59 57/57/57
f 62/62/62 64/64/64 63/63/63 61/61/61
f 66/66/66 68/68/68 67/67/67 65/65/65
f 70/70/70 72/72/72 71/71/71 69/69/69
g object_2
v -11.5 1 11.5
v -11.5 1 -11.5
v 11.5 1 11.5
v 11.5 1 -11.5
vt 0 0
vt 0 1
vt 1 0
vt 1 1
vn 0 1 0
vn 0 1 0
vn 0 1 0
vn 0 1 0
f 76/76/76 74/74/74 73/73/73 75/75/75
g object_3
v -12.5 0 12.5
v -12.5 1 12.5
v 12.5 0 12.5
v 12.5 1 12.5
v 12.5 0 12.5
v 12.5 1 12.5
v 12.5 0 -12.5
v 12.5 1 -12.5
v 12.5 0 -12.5
v 12.5 1 -12.5
v -12.5 0 -12.5
v -12.5 1 -12.5
v -12.5 0 -12.5
v -12.5 1 -12.5
v -12.5 0 12.5
v -12.5 1 12.5
v -12.5 0 12.5
v -12.5 0 -12.5
v 12.5 0 12.5
v 12.5 0 -12.5
v -12.5 1 12.5
v -12.5 1 -12.5
v 12.5 1 12.5
v 12.5 1 -12.5
v 11.5 1 11.5
v -11.5 1 11.5
v 11.5 1 -11.5
v -11.5 1 -11.5
vt 0.03853515535593033 0
vt 0.01999999955296516 0
vt 0.03853515535593033 0.5
vt 0.01999999955296516 0.5
vt 0.01853515580296516 0
vt 0 0
vt 0.01853515580296516 0.5
vt 0 0.5
vt 0.07853515446186066 0
vt 0.05999999865889549 0
vt 0.07853515446186066 0.5
vt 0.05999999865889549 0.5
vt 0.05853515490889549 0
vt 0.03999999910593033 0
vt 0.05853515490889549 0.5
vt 0.03999999910593033 0.5
vt 0.5785351395606995 0.5
vt 0.07999999821186066 0.5
vt 0.5785351395606995 0.99853515625
vt 0.07999999821186066 0.99853515625
vt 0.5785351395606995 0
vt 0.07999999821186066 0
vt 0.5785351395606995 0.49853515625
vt 0.07999999821186066 0.49853515625
vt 0.55859375 0.4785937368869782
vt 0.55859375 0.01994140632450581
vt 0.09994141757488251 0.4785937368869782
vt 0.09994141757488251 0.01994140632450581
vn 0 0 1
vn 0 0 1
vn 0 0 1
vn 0 0 1
vn 1 0 0
vn 1 0 0
vn 1 0 0
vn 1 0 0
vn 0 0 -1
vn 0 0 -1
vn 0 0 -1
vn 0 0 -1
vn -1 0 0
vn -1 0 0
vn -1 0 0
vn -1 0 0
vn 0 -1 0
vn 0 -1 0
vn 0 -1 0
vn 0 -1 0
vn 0 1 0
vn 0 1 0
vn 0 1 0
vn 0 1 0
vn 0 1 0
vn 0 1 0
vn 0 1 0
vn 0 1 0
f 78/78/78 77/77/77 79/79/79 80/80/80
f 82/82/82 81/81/81 83/83/83 84/84/84
f 86/86/86 85/85/85 87/87/87 88/88/88
f 90/90/90 89/89/89 91/91/91 92/92/92
f 94/94/94 96/96/96 95/95/95 93/93/93
f 102/102/102 104/104/104 98/98/98 97/97/97
f 97/97/97 99/99/99 101/101/101 102/102/102
f 104/104/104 103/103/103 100/100/100 98/98/98
f 99/99/99 100/100/100 103/103/103 101/101/101
