# Rhino

g object_1
v -11.5 10 11.5
v 11.5 10 11.5
v -11.5 10 12.5
v 11.5 10 12.5
v -11.5 1 11.5
v 11.5 1 11.5
v -11.5 1 12.5
v 11.5 1 12.5
v -11.5 1 11.5
v -11.5 10 11.5
v -11.5 1 12.5
v -11.5 10 12.5
v -11.5 1 12.5
v -11.5 10 12.5
v 11.5 1 12.5
v 11.5 10 12.5
v 11.5 1 12.5
v 11.5 10 12.5
v 11.5 1 11.5
v 11.5 10 11.5
v 11.5 1 11.5
v 11.5 10 11.5
v -11.5 1 11.5
v -11.5 10 11.5
vt 0.1304347813129425 0
vt 0.1304347813129425 0.99853515625
vt 0.1724482029676437 0
vt 0.1724482029676437 0.99853515625
vt 0.08695652335882187 0
vt 0.08695652335882187 0.99853515625
vt 0.1289699375629425 0
vt 0.1289699375629425 0.99853515625
vt 0.04347826167941093 0
vt 0.04347826167941093 0.3913043439388275
vt 0.08549167960882187 0
vt 0.08549167960882187 0.3913043439388275
vt 0.95505690574646 0
vt 0.5652173757553101 0
vt 0.95505690574646 0.99853515625
vt 0.5652173757553101 0.99853515625
vt 0 0
vt 0 0.3913043439388275
vt 0.04201341792941093 0
vt 0.04201341792941093 0.3913043439388275
vt 0.5637525320053101 0
vt 0.1739130467176437 0
vt 0.5637525320053101 0.99853515625
vt 0.1739130467176437 0.99853515625
vn 0 1 0
vn 0 1 0
vn 0 1 0
vn 0 1 0
vn 0 -1 0
vn 0 -1 0
vn 0 -1 0
vn 0 -1 0
vn -1 0 0
vn -1 0 0
vn -1 0 0
vn -1 0 0
vn 1.221245327087672e-15 0 1
vn 1.221245327087672e-15 0 1
vn 1.221245327087672e-15 0 1
vn 1.221245327087672e-15 0 1
vn 1 0 0
vn 1 0 0
vn 1 0 0
vn 1 0 0
vn -1.221245327087672e-15 0 -1
vn -1.221245327087672e-15 0 -1
vn -1.221245327087672e-15 0 -1
vn -1.221245327087672e-15 0 -1
f 2/2/2 1/1/1 3/3/3 4/4/4
f 6/6/6 8/8/8 7/7/7 5/5/5
f 10/10/10 9/9/9 11/11/11 12/12/12
f 14/14/14 13/13/13 15/15/15 16/16/16
f 18/18/18 17/17/17 19/19/19 20/20/20
f 22/22/22 21/21/21 23/23/23 24/24/24
g object_2
v -11.5 10 -12.5
v 11.5 10 -12.5
v -11.5 10 -11.5
v 11.5 10 -11.5
v -11.5 1 -12.5
v 11.5 1 -12.5
v -11.5 1 -11.5
v 11.5 1 -11.5
v -11.5 1 -12.5
v -11.5 10 -12.5
v -11.5 1 -11.5
v -11.5 10 -11.5
v -11.5 1 -11.5
v -11.5 10 -11.5
v 11.5 1 -11.5
v 11.5 10 -11.5
v 11.5 1 -11.5
v 11.5 10 -11.5
v 11.5 1 -12.5
v 11.5 10 -12.5
v 11.5 1 -12.5
v 11.5 10 -12.5
v -11.5 1 -12.5
v -11.5 10 -12.5
vt 0.1304347813129425 0
vt 0.1304347813129425 0.99853515625
vt 0.1724482029676437 0
vt 0.1724482029676437 0.99853515625
vt 0.08695652335882187 0
vt 0.08695652335882187 0.99853515625
vt 0.1289699375629425 0
vt 0.1289699375629425 0.99853515625
vt 0.04347826167941093 0
vt 0.04347826167941093 0.3913043439388275
vt 0.08549167960882187 0
vt 0.08549167960882187 0.3913043439388275
vt 0.95505690574646 0
vt 0.5652173757553101 0
vt 0.95505690574646 0.99853515625
vt 0.5652173757553101 0.99853515625
vt 0 0
vt 0 0.3913043439388275
vt 0.04201341792941093 0
vt 0.04201341792941093 0.3913043439388275
vt 0.5637525320053101 0
vt 0.1739130467176437 0
vt 0.5637525320053101 0.99853515625
vt 0.1739130467176437 0.99853515625
vn 0 1 0
vn 0 1 0
vn 0 1 0
vn 0 1 0
vn 0 -1 0
vn 0 -1 0
vn 0 -1 0
vn 0 -1 0
vn -1 0 0
vn -1 0 0
vn -1 0 0
vn -1 0 0
vn 1.221245327087672e-15 0 1
vn 1.221245327087672e-15 0 1
vn 1.221245327087672e-15 0 1
vn 1.221245327087672e-15 0 1
vn 1 0 0
vn 1 0 0
vn 1 0 0
vn 1 0 0
vn -1.221245327087672e-15 0 -1
vn -1.221245327087672e-15 0 -1
vn -1.221245327087672e-15 0 -1
vn -1.221245327087672e-15 0 -1
f 26/26/26 25/25/25 27/27/27 28/28/28
f 30/30/30 32/32/32 31/31/31 29/29/29
f 34/34/34 33/33/33 35/35/35 36/36/36
f 38/38/38 37/37/37 39/39/39 40/40/40
f 42/42/42 41/41/41 43/43/43 44/44/44
f 46/46/46 45/45/45 47/47/47 48/48/48
g object_3
v -12.49999904632568 0 12.5
v -12.49999904632568 1 12.5
v 12.50000095367432 0 12.5
v 12.50000095367432 1 12.5
v 12.50000095367432 0 12.5
v 12.50000095367432 1 12.5
v 12.50000095367432 0 -12.5
v 12.50000095367432 1 -12.5
v 12.50000095367432 0 -12.5
v 12.50000095367432 1 -12.5
v -12.49999904632568 0 -12.5
v -12.49999904632568 1 -12.5
v -12.49999904632568 0 -12.5
v -12.49999904632568 1 -12.5
v -12.49999904632568 0 12.5
v -12.49999904632568 1 12.5
v -12.49999904632568 0 12.5
v -12.49999904632568 0 -12.5
v 12.50000095367432 0 12.5
v 12.50000095367432 0 -12.5
v -12.49999904632568 1 12.5
v -12.49999904632568 1 -12.5
v 12.50000095367432 1 12.5
v 12.50000095367432 1 -12.5
v 11.50000095367432 1 11.5
v -11.49999904632568 1 11.5
v 11.50000095367432 1 -11.5
v -11.49999904632568 1 -11.5
vt 0.03853515535593033 0
vt 0.01999999955296516 0
vt 0.03853515535593033 0.5
vt 0.01999999955296516 0.5
vt 0.01853515580296516 0
vt 0 0
vt 0.01853515580296516 0.5
vt 0 0.5
vt 0.07853515446186066 0
vt 0.05999999865889549 0
vt 0.07853515446186066 0.5
vt 0.05999999865889549 0.5
vt 0.05853515490889549 0
vt 0.03999999910593033 0
vt 0.05853515490889549 0.5
vt 0.03999999910593033 0.5
vt 0.5785351395606995 0.5
vt 0.07999999821186066 0.5
vt 0.5785351395606995 0.99853515625
vt 0.07999999821186066 0.99853515625
vt 0.5785351395606995 0
vt 0.07999999821186066 0
vt 0.5785351395606995 0.49853515625
vt 0.07999999821186066 0.49853515625
vt 0.55859375 0.4785937368869782
vt 0.55859375 0.01994140632450581
vt 0.09994141757488251 0.4785937368869782
vt 0.09994141757488251 0.01994140632450581
vn 0 0 1
vn 0 0 1
vn 0 0 1
vn 0 0 1
vn 1 0 0
vn 1 0 0
vn 1 0 0
vn 1 0 0
vn 0 0 -1
vn 0 0 -1
vn 0 0 -1
vn 0 0 -1
vn -1 0 0
vn -1 0 0
vn -1 0 0
vn -1 0 0
vn 0 -1 0
vn 0 -1 0
vn 0 -1 0
vn 0 -1 0
vn 0 1 0
vn 0 1 0
vn 0 1 0
vn 0 1 0
vn 0 1 0
vn 0 1 0
vn 0 1 0
vn 0 1 0
f 50/50/50 49/49/49 51/51/51 52/52/52
f 54/54/54 53/53/53 55/55/55 56/56/56
f 58/58/58 57/57/57 59/59/59 60/60/60
f 62/62/62 61/61/61 63/63/63 64/64/64
f 66/66/66 68/68/68 67/67/67 65/65/65
f 74/74/74 76/76/76 70/70/70 69/69/69
f 69/69/69 71/71/71 73/73/73 74/74/74
f 76/76/76 75/75/75 72/72/72 70/70/70
f 71/71/71 72/72/72 75/75/75 73/73/73
g object_4
v -12.49999904632568 10 11.5
v -12.49999904632568 10 -11.5
v -11.49999904632568 10 11.5
v -11.49999904632568 10 -11.5
v -12.49999904632568 1 11.5
v -12.49999904632568 1 -11.5
v -11.49999904632568 1 11.5
v -11.49999904632568 1 -11.5
v -12.49999904632568 1 11.5
v -12.49999904632568 10 11.5
v -11.49999904632568 1 11.5
v -11.49999904632568 10 11.5
v -11.49999904632568 1 11.5
v -11.49999904632568 10 11.5
v -11.49999904632568 1 -11.5
v -11.49999904632568 10 -11.5
v -11.49999904632568 1 -11.5
v -11.49999904632568 10 -11.5
v -12.49999904632568 1 -11.5
v -12.49999904632568 10 -11.5
v -12.49999904632568 1 -11.5
v -12.49999904632568 10 -11.5
v -12.49999904632568 1 11.5
v -12.49999904632568 10 11.5
vt 0.1304347813129425 0
vt 0.1304347813129425 0.99853515625
vt 0.1724482029676437 0
vt 0.1724482029676437 0.99853515625
vt 0.08695652335882187 0
vt 0.08695652335882187 0.99853515625
vt 0.1289699375629425 0
vt 0.1289699375629425 0.99853515625
vt 0.04347826167941093 0
vt 0.04347826167941093 0.3913043439388275
vt 0.08549167960882187 0
vt 0.08549167960882187 0.3913043439388275
vt 0.95505690574646 0
vt 0.5652173757553101 0
vt 0.95505690574646 0.99853515625
vt 0.5652173757553101 0.99853515625
vt 0 0
vt 0 0.3913043439388275
vt 0.04201341792941093 0
vt 0.04201341792941093 0.3913043439388275
vt 0.5637525320053101 0
vt 0.1739130467176437 0
vt 0.5637525320053101 0.99853515625
vt 0.1739130467176437 0.99853515625
vn 0 1 0
vn 0 1 0
vn 0 1 0
vn 0 1 0
vn 0 -1 0
vn 0 -1 0
vn 0 -1 0
vn 0 -1 0
vn 0 0 1
vn 0 0 1
vn 0 0 1
vn 0 0 1
vn 1 0 0
vn 1 0 0
vn 1 0 0
vn 1 0 0
vn 0 0 -1
vn 0 0 -1
vn 0 0 -1
vn 0 0 -1
vn -1 0 0
vn -1 0 0
vn -1 0 0
vn -1 0 0
f 78/78/78 77/77/77 79/79/79 80/80/80
f 82/82/82 84/84/84 83/83/83 81/81/81
f 86/86/86 85/85/85 87/87/87 88/88/88
f 90/90/90 89/89/89 91/91/91 92/92/92
f 94/94/94 93/93/93 95/95/95 96/96/96
f 98/98/98 97/97/97 99/99/99 100/100/100
g object_5
v 11.50000095367432 10 11.5
v 11.50000095367432 10 -11.5
v 12.50000095367432 10 11.5
v 12.50000095367432 10 -11.5
v 11.50000095367432 1 11.5
v 11.50000095367432 1 -11.5
v 12.50000095367432 1 11.5
v 12.50000095367432 1 -11.5
v 11.50000095367432 1 11.5
v 11.50000095367432 10 11.5
v 12.50000095367432 1 11.5
v 12.50000095367432 10 11.5
v 12.50000095367432 1 11.5
v 12.50000095367432 10 11.5
v 12.50000095367432 1 -11.5
v 12.50000095367432 10 -11.5
v 12.50000095367432 1 -11.5
v 12.50000095367432 10 -11.5
v 11.50000095367432 1 -11.5
v 11.50000095367432 10 -11.5
v 11.50000095367432 1 -11.5
v 11.50000095367432 10 -11.5
v 11.50000095367432 1 11.5
v 11.50000095367432 10 11.5
vt 0.1304347813129425 0
vt 0.1304347813129425 0.99853515625
vt 0.1724482029676437 0
vt 0.1724482029676437 0.99853515625
vt 0.08695652335882187 0
vt 0.08695652335882187 0.99853515625
vt 0.1289699375629425 0
vt 0.1289699375629425 0.99853515625
vt 0.04347826167941093 0
vt 0.04347826167941093 0.3913043439388275
vt 0.08549167960882187 0
vt 0.08549167960882187 0.3913043439388275
vt 0.95505690574646 0
vt 0.5652173757553101 0
vt 0.95505690574646 0.99853515625
vt 0.5652173757553101 0.99853515625
vt 0 0
vt 0 0.3913043439388275
vt 0.04201341792941093 0
vt 0.04201341792941093 0.3913043439388275
vt 0.5637525320053101 0
vt 0.1739130467176437 0
vt 0.5637525320053101 0.99853515625
vt 0.1739130467176437 0.99853515625
vn 0 1 0
vn 0 1 0
vn 0 1 0
vn 0 1 0
vn 0 -1 0
vn 0 -1 0
vn 0 -1 0
vn 0 -1 0
vn 0 0 1
vn 0 0 1
vn 0 0 1
vn 0 0 1
vn 1 0 0
vn 1 0 0
vn 1 0 0
vn 1 0 0
vn 0 0 -1
vn 0 0 -1
vn 0 0 -1
vn 0 0 -1
vn -1 0 0
vn -1 0 0
vn -1 0 0
vn -1 0 0
f 102/102/102 101/101/101 103/103/103 104/104/104
f 106/106/106 108/108/108 107/107/107 105/105/105
f 110/110/110 109/109/109 111/111/111 112/112/112
f 114/114/114 113/113/113 115/115/115 116/116/116
f 118/118/118 117/117/117 119/119/119 120/120/120
f 122/122/122 121/121/121 123/123/123 124/124/124
g object_6
v -11.49999904632568 1 11.5
v -11.49999904632568 1 -11.5
v 11.50000095367432 1 11.5
v 11.50000095367432 1 -11.5
vt 0 0
vt 0 1
vt 1 0
vt 1 1
vn 0 1 0
vn 0 1 0
vn 0 1 0
vn 0 1 0
f 128/128/128 126/126/126 125/125/125 127/127/127
g object_7
v -12.49999904632568 1 -12.5
v -12.49999904632568 1 -11.5
v -11.49999904632568 1 -12.5
v -11.49999904632568 1 -11.5
v -12.49999904632568 10 -12.5
v -12.49999904632568 10 -11.5
v -11.49999904632568 10 -12.5
v -11.49999904632568 10 -11.5
v -11.49999904632568 10 -12.5
v -11.49999904632568 1 -12.5
v -11.49999904632568 10 -11.5
v -11.49999904632568 1 -11.5
v -11.49999904632568 10 -11.5
v -11.49999904632568 1 -11.5
v -12.49999904632568 10 -11.5
v -12.49999904632568 1 -11.5
v -12.49999904632568 10 -11.5
v -12.49999904632568 1 -11.5
v -12.49999904632568 10 -12.5
v -12.49999904632568 1 -12.5
v -12.49999904632568 10 -12.5
v -12.49999904632568 1 -12.5
v -11.49999904632568 10 -12.5
v -11.49999904632568 1 -12.5
vt 0.550000011920929 0
vt 0.550000011920929 0.1000000014901161
vt 0.6499999761581421 0
vt 0.6499999761581421 0.1000000014901161
vt 0.1000000014901161 0
vt 0.1000000014901161 0.1000000014901161
vt 0.2000000029802322 0
vt 0.2000000029802322 0.1000000014901161
vt 0.99853515625 0.675000011920929
vt 0.1000000014901161 0.675000011920929
vt 0.99853515625 0.7749999761581421
vt 0.1000000014901161 0.7749999761581421
vt 0 0
vt 0 0.8985351324081421
vt 0.09853515774011612 0
vt 0.09853515774011612 0.8985351324081421
vt 0.99853515625 0.449999988079071
vt 0.1000000014901161 0.449999988079071
vt 0.99853515625 0.550000011920929
vt 0.1000000014901161 0.550000011920929
vt 0.99853515625 0.2249999940395355
vt 0.1000000014901161 0.2249999940395355
vt 0.99853515625 0.324999988079071
vt 0.1000000014901161 0.324999988079071
vn 0 -1 0
vn 0 -1 0
vn 0 -1 0
vn 0 -1 0
vn 0 1 0
vn 0 1 0
vn 0 1 0
vn 0 1 0
vn 1 0 0
vn 1 0 0
vn 1 0 0
vn 1 0 0
vn 0 0 1
vn 0 0 1
vn 0 0 1
vn 0 0 1
vn -1 0 0
vn -1 0 0
vn -1 0 0
vn -1 0 0
vn 0 0 -1
vn 0 0 -1
vn 0 0 -1
vn 0 0 -1
f 130/130/130 129/129/129 131/131/131 132/132/132
f 134/134/134 136/136/136 135/135/135 133/133/133
f 138/138/138 137/137/137 139/139/139 140/140/140
f 142/142/142 141/141/141 143/143/143 144/144/144
f 146/146/146 145/145/145 147/147/147 148/148/148
f 150/150/150 149/149/149 151/151/151 152/152/152
g object_8
v 11.50000095367432 1 -12.5
v 11.50000095367432 1 -11.5
v 12.50000095367432 1 -12.5
v 12.50000095367432 1 -11.5
v 11.50000095367432 10 -12.5
v 11.50000095367432 10 -11.5
v 12.50000095367432 10 -12.5
v 12.50000095367432 10 -11.5
v 12.50000095367432 10 -12.5
v 12.50000095367432 1 -12.5
v 12.50000095367432 10 -11.5
v 12.50000095367432 1 -11.5
v 12.50000095367432 10 -11.5
v 12.50000095367432 1 -11.5
v 11.50000095367432 10 -11.5
v 11.50000095367432 1 -11.5
v 11.50000095367432 10 -11.5
v 11.50000095367432 1 -11.5
v 11.50000095367432 10 -12.5
v 11.50000095367432 1 -12.5
v 11.50000095367432 10 -12.5
v 11.50000095367432 1 -12.5
v 12.50000095367432 10 -12.5
v 12.50000095367432 1 -12.5
vt 0.550000011920929 0
vt 0.550000011920929 0.1000000014901161
vt 0.6499999761581421 0
vt 0.6499999761581421 0.1000000014901161
vt 0.1000000014901161 0
vt 0.1000000014901161 0.1000000014901161
vt 0.2000000029802322 0
vt 0.2000000029802322 0.1000000014901161
vt 0.99853515625 0.675000011920929
vt 0.1000000014901161 0.675000011920929
vt 0.99853515625 0.7749999761581421
vt 0.1000000014901161 0.7749999761581421
vt 0 0
vt 0 0.8985351324081421
vt 0.09853515774011612 0
vt 0.09853515774011612 0.8985351324081421
vt 0.99853515625 0.449999988079071
vt 0.1000000014901161 0.449999988079071
vt 0.99853515625 0.550000011920929
vt 0.1000000014901161 0.550000011920929
vt 0.99853515625 0.2249999940395355
vt 0.1000000014901161 0.2249999940395355
vt 0.99853515625 0.324999988079071
vt 0.1000000014901161 0.324999988079071
vn 0 -1 0
vn 0 -1 0
vn 0 -1 0
vn 0 -1 0
vn 0 1 0
vn 0 1 0
vn 0 1 0
vn 0 1 0
vn 1 0 0
vn 1 0 0
vn 1 0 0
vn 1 0 0
vn 0 0 1
vn 0 0 1
vn 0 0 1
vn 0 0 1
vn -1 0 0
vn -1 0 0
vn -1 0 0
vn -1 0 0
vn 0 0 -1
vn 0 0 -1
vn 0 0 -1
vn 0 0 -1
f 154/154/154 153/153/153 155/155/155 156/156/156
f 158/158/158 160/160/160 159/159/159 157/157/157
f 162/162/162 161/161/161 163/163/163 164/164/164
f 166/166/166 165/165/165 167/167/167 168/168/168
f 170/170/170 169/169/169 171/171/171 172/172/172
f 174/174/174 173/173/173 175/175/175 176/176/176
g object_9
v 11.50000095367432 1 11.5
v 11.50000095367432 1 12.5
v 12.50000095367432 1 11.5
v 12.50000095367432 1 12.5
v 11.50000095367432 10 11.5
v 11.50000095367432 10 12.5
v 12.50000095367432 10 11.5
v 12.50000095367432 10 12.5
v 12.50000095367432 10 11.5
v 12.50000095367432 1 11.5
v 12.50000095367432 10 12.5
v 12.50000095367432 1 12.5
v 12.50000095367432 10 12.5
v 12.50000095367432 1 12.5
v 11.50000095367432 10 12.5
v 11.50000095367432 1 12.5
v 11.50000095367432 10 12.5
v 11.50000095367432 1 12.5
v 11.50000095367432 10 11.5
v 11.50000095367432 1 11.5
v 11.50000095367432 10 11.5
v 11.50000095367432 1 11.5
v 12.50000095367432 10 11.5
v 12.50000095367432 1 11.5
vt 0.550000011920929 0
vt 0.550000011920929 0.1000000014901161
vt 0.6499999761581421 0
vt 0.6499999761581421 0.1000000014901161
vt 0.1000000014901161 0
vt 0.1000000014901161 0.1000000014901161
vt 0.2000000029802322 0
vt 0.2000000029802322 0.1000000014901161
vt 0.99853515625 0.675000011920929
vt 0.1000000014901161 0.675000011920929
vt 0.99853515625 0.7749999761581421
vt 0.1000000014901161 0.7749999761581421
vt 0 0
vt 0 0.8985351324081421
vt 0.09853515774011612 0
vt 0.09853515774011612 0.8985351324081421
vt 0.99853515625 0.449999988079071
vt 0.1000000014901161 0.449999988079071
vt 0.99853515625 0.550000011920929
vt 0.1000000014901161 0.550000011920929
vt 0.99853515625 0.2249999940395355
vt 0.1000000014901161 0.2249999940395355
vt 0.99853515625 0.324999988079071
vt 0.1000000014901161 0.324999988079071
vn 0 -1 0
vn 0 -1 0
vn 0 -1 0
vn 0 -1 0
vn 0 1 0
vn 0 1 0
vn 0 1 0
vn 0 1 0
vn 1 0 0
vn 1 0 0
vn 1 0 0
vn 1 0 0
vn 0 0 1
vn 0 0 1
vn 0 0 1
vn 0 0 1
vn -1 0 0
vn -1 0 0
vn -1 0 0
vn -1 0 0
vn 0 0 -1
vn 0 0 -1
vn 0 0 -1
vn 0 0 -1
f 178/178/178 177/177/177 179/179/179 180/180/180
f 182/182/182 184/184/184 183/183/183 181/181/181
f 186/186/186 185/185/185 187/187/187 188/188/188
f 190/190/190 189/189/189 191/191/191 192/192/192
f 194/194/194 193/193/193 195/195/195 196/196/196
f 198/198/198 197/197/197 199/199/199 200/200/200
g object_10
v -12.49999904632568 1 11.5
v -12.49999904632568 1 12.5
v -11.49999904632568 1 11.5
v -11.49999904632568 1 12.5
v -12.49999904632568 10 11.5
v -12.49999904632568 10 12.5
v -11.49999904632568 10 11.5
v -11.49999904632568 10 12.5
v -11.49999904632568 10 11.5
v -11.49999904632568 1 11.5
v -11.49999904632568 10 12.5
v -11.49999904632568 1 12.5
v -11.49999904632568 10 12.5
v -11.49999904632568 1 12.5
v -12.49999904632568 10 12.5
v -12.49999904632568 1 12.5
v -12.49999904632568 10 12.5
v -12.49999904632568 1 12.5
v -12.49999904632568 10 11.5
v -12.49999904632568 1 11.5
v -12.49999904632568 10 11.5
v -12.49999904632568 1 11.5
v -11.49999904632568 10 11.5
v -11.49999904632568 1 11.5
vt 0.550000011920929 0
vt 0.550000011920929 0.1000000014901161
vt 0.6499999761581421 0
vt 0.6499999761581421 0.1000000014901161
vt 0.1000000014901161 0
vt 0.1000000014901161 0.1000000014901161
vt 0.2000000029802322 0
vt 0.2000000029802322 0.1000000014901161
vt 0.99853515625 0.675000011920929
vt 0.1000000014901161 0.675000011920929
vt 0.99853515625 0.7749999761581421
vt 0.1000000014901161 0.7749999761581421
vt 0 0
vt 0 0.8985351324081421
vt 0.09853515774011612 0
vt 0.09853515774011612 0.8985351324081421
vt 0.99853515625 0.449999988079071
vt 0.1000000014901161 0.449999988079071
vt 0.99853515625 0.550000011920929
vt 0.1000000014901161 0.550000011920929
vt 0.99853515625 0.2249999940395355
vt 0.1000000014901161 0.2249999940395355
vt 0.99853515625 0.324999988079071
vt 0.1000000014901161 0.324999988079071
vn 0 -1 0
vn 0 -1 0
vn 0 -1 0
vn 0 -1 0
vn 0 1 0
vn 0 1 0
vn 0 1 0
vn 0 1 0
vn 1 0 0
vn 1 0 0
vn 1 0 0
vn 1 0 0
vn 0 0 1
vn 0 0 1
vn 0 0 1
vn 0 0 1
vn -1 0 0
vn -1 0 0
vn -1 0 0
vn -1 0 0
vn 0 0 -1
vn 0 0 -1
vn 0 0 -1
vn 0 0 -1
f 202/202/202 201/201/201 203/203/203 204/204/204
f 206/206/206 208/208/208 207/207/207 205/205/205
f 210/210/210 209/209/209 211/211/211 212/212/212
f 214/214/214 213/213/213 215/215/215 216/216/216
f 218/218/218 217/217/217 219/219/219 220/220/220
f 222/222/222 221/221/221 223/223/223 224/224/224
